<svg width="850" height="631" viewBox="0 0 850 631" fill="none" xmlns="http://www.w3.org/2000/svg">
<path d="M277.812 0.587308C286.006 -0.642192 307.961 0.149303 316.214 2.1188C329.98 5.4043 332.415 4.65179 346.027 4.03979C384.755 2.29879 425.286 21.5733 450.546 50.5333C457.346 58.3308 462.821 66.1448 468.961 74.5123C475.366 77.1713 481.921 79.4543 487.936 82.8708C534.641 109.4 552.301 177.345 525.956 223.88C524.466 226.52 521.511 229.49 520.636 232.31C519.636 236.015 519.446 240.065 518.881 243.86C514.596 272.535 494.741 293.22 471.471 308.855C451.561 322.235 429.041 332.935 406.426 341.135C398.856 343.88 390.595 347.32 382.766 349.47C387.269 350.115 398.391 351.315 401.416 353.975C408.596 360.285 416.261 370.6 422.656 378.07L475.761 439.99C484.261 449.9 493.331 461.105 502.461 470.375C504.991 472.945 513.636 477.68 517.106 479.685C519.031 471.42 522.431 461.645 525.041 453.45L536.191 417.635L549.141 376.305C551.856 367.785 554.531 358.135 558.506 350.19C560.346 346.52 562.021 345.43 565.996 344.4C571.131 343.065 576.786 342.095 582.036 341.08C591.501 339.28 600.961 337.425 610.406 335.515L719.351 313.545L788.306 299.035C796.996 297.235 809.446 294.27 818.191 293.55C826.401 294.5 836.441 300.96 843.676 304.21C851.506 307.725 850.186 314.5 848.251 321.35C840.501 348.755 831.526 375.935 822.561 402.98L800.741 470.49L781.511 530.88C778.976 538.75 775.461 550.795 771.866 558.21C769.931 562.2 756.401 564.52 751.381 565.705C735.466 569.995 718.336 573.97 702.281 577.945L582.036 607.37L529.996 620.21C524.206 621.655 502.226 627.53 497.321 627.205C488.361 626.605 471.836 623.125 462.361 621.49L376.611 606.345C369.321 605.125 361.722 603.695 354.358 603.395C343.013 602.94 332.02 604.85 320.934 602.05C287.971 627.665 228.969 635.31 188.851 627.29C166.366 622.795 144.719 611.3 131.829 591.37C114.617 564.76 122.513 526.22 127.808 496.825C134.521 466.365 149.771 419.25 169.678 394.39C175.611 386.98 184.155 381.11 192.075 376.025C164.331 375.73 143.907 373.69 117.244 365.035C111.693 366.76 105.005 368.665 99.1704 369.02C79.0209 370.255 58.3184 362.705 43.0994 349.61C25.1594 334.175 13.4969 312.26 9.33641 289.11C8.05141 281.96 8.1219 274.575 7.1429 267.45C6.4264 264.005 4.8299 260.6 3.8319 257.265C-9.8331 211.595 15.2654 163.09 44.1334 128.66C52.7059 118.437 62.4759 109.641 71.7609 100.142C83.1139 88.5273 93.5854 76.1223 106.741 66.3818C152.157 32.3318 221.506 4.98181 277.812 0.587308Z" fill="#750F20"/>
<path d="M277.812 0.587308C286.006 -0.642192 307.961 0.149303 316.214 2.1188C329.98 5.4043 332.415 4.65179 346.027 4.03979C384.755 2.29879 425.286 21.5733 450.546 50.5333C457.346 58.3308 462.821 66.1448 468.961 74.5123C475.366 77.1713 481.921 79.4543 487.936 82.8708C534.641 109.4 552.301 177.345 525.956 223.88C524.466 226.52 521.511 229.49 520.636 232.31C519.636 236.015 519.446 240.065 518.881 243.86C514.596 272.535 494.741 293.22 471.471 308.855C451.561 322.235 429.041 332.935 406.426 341.135C398.856 343.88 390.595 347.32 382.766 349.47C387.269 350.115 398.391 351.315 401.416 353.975C408.596 360.285 416.261 370.6 422.656 378.07L475.761 439.99C484.261 449.9 493.331 461.105 502.461 470.375C504.991 472.945 513.636 477.68 517.106 479.685C519.031 471.42 522.431 461.645 525.041 453.45L536.191 417.635L549.141 376.305C551.856 367.785 554.531 358.135 558.506 350.19C560.346 346.52 562.021 345.43 565.996 344.4C571.131 343.065 576.786 342.095 582.036 341.08C591.501 339.28 600.961 337.425 610.406 335.515L719.351 313.545L788.306 299.035C796.996 297.235 809.446 294.27 818.191 293.55C826.401 294.5 836.441 300.96 843.676 304.21C851.506 307.725 850.186 314.5 848.251 321.35C840.501 348.755 831.526 375.935 822.561 402.98L800.741 470.49L781.511 530.88C778.976 538.75 775.461 550.795 771.866 558.21C769.931 562.2 756.401 564.52 751.381 565.705C735.466 569.995 718.336 573.97 702.281 577.945L582.036 607.37L529.996 620.21C524.206 621.655 502.226 627.53 497.321 627.205C488.361 626.605 471.836 623.125 462.361 621.49L376.611 606.345C369.321 605.125 361.722 603.695 354.358 603.395C343.013 602.94 332.02 604.85 320.934 602.05C287.971 627.665 228.969 635.31 188.851 627.29C166.366 622.795 144.719 611.3 131.829 591.37C114.617 564.76 122.513 526.22 127.808 496.825C134.521 466.365 149.771 419.25 169.678 394.39C175.611 386.98 184.155 381.11 192.075 376.025C164.331 375.73 143.907 373.69 117.244 365.035C111.693 366.76 105.005 368.665 99.1704 369.02C79.0209 370.255 58.3184 362.705 43.0994 349.61C25.1594 334.175 13.4969 312.26 9.33641 289.11C8.05141 281.96 8.1219 274.575 7.1429 267.45C6.4264 264.005 4.8299 260.6 3.8319 257.265C-9.8331 211.595 15.2654 163.09 44.1334 128.66C52.7059 118.437 62.4759 109.641 71.7609 100.142C83.1139 88.5273 93.5854 76.1223 106.741 66.3818C152.157 32.3318 221.506 4.98181 277.812 0.587308Z" fill="#750F20"/>
<path d="M398.601 44.9512C405.911 45.5607 434.131 50.2666 438.721 55.1161C474.056 92.4327 500.076 161.465 507.156 209.4C514.061 256.18 493.046 281.765 459.176 302.685C396.961 341.115 324.179 351.39 253.545 360.795C231.326 319.93 220.198 282.785 209.369 237.995C199.828 198.255 196.781 165.565 192.947 125.561C231.397 97.8397 258.751 83.5227 303.959 70.5152C327.384 83.5917 340.099 103.097 348.335 127.892C339.367 129.938 285.498 142.051 282.479 145.685C281.625 146.714 281.693 147.336 281.756 148.563C283.294 150.782 284.288 151.095 287.011 150.327C313.132 143.002 339.485 136.53 366.029 130.922C385.884 126.355 405.866 122.357 425.951 118.935C434.416 117.555 443.146 116.222 451.716 116.007C455.896 115.902 464.421 118.647 464.986 112.976C462.236 106.479 437.131 110.427 430.781 111.209C428.301 95.7496 419.236 74.9542 410.711 61.5272C407.616 56.6562 402.181 49.8727 398.601 44.9512Z" fill="#FEFEFE"/>
<path d="M317.763 165.07C346.543 163.245 367.266 189.31 370.521 215.93C372.777 235.105 367.349 254.395 355.423 269.58C344.515 283.28 329.898 291.475 312.518 293.415C303.331 293.59 295.607 293.06 287.144 289.01C230.639 261.96 262.896 170.48 317.763 165.07Z" fill="#750F20"/>
<path d="M309.582 200.095C329.519 200.825 325.396 219.97 315.578 230.395C307.283 239.205 300.022 242.225 288.08 242.805C257.702 239.715 280.556 202.125 309.582 200.095Z" fill="#FEFEFE"/>
<path d="M327.701 236.77C334.097 236.31 339.679 241.07 340.236 247.455C340.794 253.845 336.121 259.5 329.742 260.155C325.529 260.585 321.409 258.715 318.962 255.255C316.516 251.8 316.122 247.29 317.932 243.46C319.743 239.63 323.476 237.075 327.701 236.77Z" fill="#FEFEFE"/>
<path d="M450.205 133.473C452.965 133.29 455.735 133.665 458.35 134.573C490.785 145.772 510.77 232.815 472.855 251.085C449.2 259.355 436.665 226.635 433.735 208.96C430.34 188.495 425.37 141.995 450.205 133.473Z" fill="#750F20"/>
<path d="M458.756 167.555C478.601 169.395 470.736 202.485 450.951 208.45C431.646 208.03 437.581 171.795 458.756 167.555Z" fill="#FEFEFE"/>
<path d="M469.469 206.305C479.719 206.375 482.134 219.99 474.119 226.5C473.684 226.485 473.249 226.46 472.814 226.43C463.679 225.725 461.464 212.47 469.469 206.305Z" fill="#FEFEFE"/>
<path d="M431.249 260.84C432.499 260.855 432.789 260.91 434.024 261.135C436.869 264.745 433.139 270.51 430.704 273.44C426.279 278.815 419.829 282.125 412.884 282.58C404.614 283.06 398.899 279.95 393.07 274.625C391.51 272.69 389.315 269.25 391.951 267.28C397.049 267.835 397.229 272.315 401.794 274.345C416.949 281.075 425.369 273.81 431.249 260.84Z" fill="#750F20"/>
<path d="M408.84 228.93C415.07 228.64 417.48 231.045 421.615 235.23L414.83 237.365C411.625 238.13 407.035 239.81 404.29 238.53C402.66 235.095 405.815 230.725 408.84 228.93Z" fill="#750F20"/>
<path d="M839.901 312.555L840.741 312.735C841.426 318.18 772.596 526.825 764.516 553.145C709.526 567.04 654.456 580.615 599.306 593.865L542.436 607.82C529.791 610.9 515.821 614.445 503.111 616.84L502.561 616.755L502.141 616.14C502.516 613.44 507.816 597.75 508.821 594.67L521.706 554.38L556.041 446.455L572.801 393.905C575.856 384.345 579.261 374.565 582.016 364.945C600.971 361.98 622.501 357.155 641.431 353.35L761.616 328.62C787.216 323.225 814.251 317 839.901 312.555Z" fill="#FEFEFE"/>
<path d="M689.536 417.475C732.416 414.49 705.111 494.565 663.126 499.75C658.851 500.06 654.581 499.05 650.896 496.865C634.316 486.825 643.736 459.135 651.986 446.715C661.571 432.29 672.346 421.43 689.536 417.475Z" fill="#750F20"/>
<path d="M688.91 424.47C721.625 421.57 698.215 485.53 664.615 492.335C642.09 493.34 648.61 467.35 655.285 454.905C663.065 440.39 672.95 429.56 688.91 424.47Z" fill="#C88B87"/>
<path d="M216.886 52.174C237.708 50.1105 276.492 55.0995 294.396 66.0835C262.327 75.9285 231.943 90.5945 204.285 109.578C198.971 113.177 190.134 118.958 186.601 123.957C186.751 127.741 187.197 131.698 187.512 135.478C193.319 205.214 207.043 275.284 235.765 339.424C239.061 346.784 242.918 353.924 246.354 361.249C237.153 362.869 226.595 363.119 217.246 363.699C185.662 365.649 162.363 363.714 131.687 358.054C150.89 344.374 158.72 333.219 166.97 311.039C168.207 307.579 169.263 304.059 170.135 300.489C177.581 270.224 174.259 241.064 158.382 213.039C136.028 173.589 88.2471 161.409 48.9411 183.444C31.7411 193.089 16.6021 216.579 12.0756 236.104C10.6606 183.424 48.4776 132.636 89.2026 102.308C123.41 76.8345 174.022 55.49 216.886 52.174Z" fill="#FEFEFE"/>
<path d="M399.021 380.02C400.076 379.78 399.656 379.79 400.736 380.14C402.626 383.08 404.621 389.82 405.991 393.4L418.651 426.65C428.811 453.825 440.561 482.045 449.751 509.45C439.326 511.83 427.036 515.69 416.691 518.685C407.746 521.275 398.201 523.665 389.408 526.325C374.398 518.78 360.534 517.92 344.253 520.295C337.06 521.82 332.713 523.18 325.837 525.815C322.37 515.49 318.866 501.375 315.693 490.5L290.891 404.74L350.134 391.25C366.174 387.55 382.999 383.36 399.021 380.02Z" fill="#FEFEFE"/>
<path d="M411.664 463.42C423.694 463.1 429.939 471.895 434.039 481.93C438.304 492.375 439.289 505.525 426.829 510.305C405.844 510.585 390.463 471.585 411.664 463.42Z" fill="#750F20"/>
<path d="M411.955 469.905C417.745 469.425 421.105 471.36 424.515 476.135C429.565 483.205 434.8 497.63 426.105 503.735C420.435 503.99 417.02 501.37 413.73 496.83C408.475 489.585 403.275 476.355 411.955 469.905Z" fill="#C88B87"/>
<path d="M385.054 397.935C406.47 396.96 420.985 436.71 400.07 443.435C378.902 443.97 364.047 406.735 385.054 397.935Z" fill="#750F20"/>
<path d="M386.903 403.945C399.994 405.235 411.754 429.9 399.079 437.54C385.126 435.705 374.005 410.38 386.903 403.945Z" fill="#C88B87"/>
<path d="M66.5591 189.025C75.7266 188.575 84.8511 190.55 93.0096 194.755C113.398 205.18 125.23 226.2 131.831 247.295C143.925 285.94 131.539 338.365 89.2216 351.615C76.2971 354.6 65.2471 351.775 54.5071 343.855C14.8036 314.57 8.8071 249.705 36.9871 210.705C43.8921 201.15 54.5136 190.955 66.5591 189.025Z" fill="#C88B87"/>
<path d="M284.98 11.092C310.133 9.01651 343.731 16.4145 365.344 28.9935C398.429 48.2495 414.769 76.836 424.714 112.13C422.029 112.696 419.224 113.163 416.509 113.633C396.074 117.179 375.853 121.718 355.545 125.948L355.381 125.428C344.585 91.3025 327.553 72.8965 296.219 56.635C247.294 32.8665 197.96 40.0815 149.045 58.069C142.252 60.5145 135.581 63.2855 129.055 66.3725C126.047 67.8045 120.93 71.0085 118.34 71.763C119.714 69.3695 135.686 60.272 139.045 58.3475C181.991 33.743 235.442 13.998 284.98 11.092Z" fill="#C88B87"/>
<path d="M281.828 404.505L283.216 404.395C284.911 405.86 295.579 445 297.044 450.065L319.96 528.785C315.281 531.655 313.54 533.255 310.238 537.535C299.379 535.11 285.971 534.58 274.62 533.5C267.868 533.03 242.45 532.419 237.631 529.539C237.063 529.199 236.674 528.954 236.469 528.294C233.315 518.114 259.21 457.405 261.54 441.5C263.217 430.05 261.64 420.254 258.658 409.224L281.828 404.505Z" fill="#C88B87"/>
<path d="M172.324 478.58C172.452 478.56 172.581 478.535 172.71 478.515C195.251 477.085 214.772 480.13 232.792 493.745C229.655 502.77 226.23 514.065 224.189 523.355C207.522 520.895 188.75 525.36 172.852 530.21C157.287 535.66 145.783 542.305 133.046 552.815C132.815 528.29 137.291 508.425 143.083 484.85C153.433 481.915 161.549 479.76 172.324 478.58Z" fill="#FEFEFE"/>
<path d="M178.875 423.095C208.712 422.2 227.836 436.24 244.331 459.905L234.61 488.145C228.161 483.17 223.226 480.71 215.694 477.86C193.062 470.05 167.447 470.94 144.879 478.515C150.042 459.345 157.027 442.965 164.457 424.86C169.807 423.915 173.477 423.425 178.875 423.095Z" fill="#FEFEFE"/>
<path d="M229.215 539.28C234.899 540.2 238.404 540.535 244.153 540.88C250.195 570.18 243.976 592.5 230.105 618.82C219.538 619 210.866 618.36 200.383 617.295C193.034 616.33 187.35 614.755 180.268 612.805C180.419 611.11 180.758 609.035 181.128 607.38C187.806 577.595 204.325 555.89 229.215 539.28Z" fill="#FEFEFE"/>
<path d="M209.099 528.58C213.521 528.055 219.457 528.385 223.885 528.71C224.353 531.43 224.598 532.53 225.476 535.14C197.097 554.215 181.29 576.88 174.619 610.625C169.151 608.125 163.891 605.195 158.89 601.86C156.885 600.495 154.948 599.03 153.086 597.475C141.076 587.59 134.825 574.965 133.268 559.56C157.459 540.07 178.395 531.93 209.099 528.58Z" fill="#FEFEFE"/>
<path d="M85.6035 184.495C97.004 183.325 108.502 185.425 118.751 190.555C170.035 216.655 174.301 298.3 137.888 338.075C129.668 347.055 119.651 351.94 108.234 355.55C102.661 357.13 97.4425 357.785 91.746 358.575C96.0565 356.675 100.568 354.69 104.602 352.31C144.263 328.865 151.94 273.11 134.293 233.525C126.931 217.015 117.197 200.885 101.261 191.43C96.256 188.46 90.936 186.64 85.6035 184.495Z" fill="#C88B87"/>
<path d="M249.192 541.25C259.7 541.48 277.64 542.675 287.643 544.29C294.894 568.39 293.356 583.465 286.162 607.02C281.02 608.805 275.836 610.47 270.615 612.01C258.282 615.375 249.832 616.61 237.234 618.21C248.042 595.445 257.764 566.155 249.192 541.25Z" fill="#FEFEFE"/>
<path d="M207.269 384.02C211.406 383.51 215.602 383.855 219.6 385.03C230.507 388.2 239.63 396.485 244.747 406.44C253.384 423.24 251.943 436.305 246.753 453.485C241.275 445.92 236.751 440.665 229.807 434.51C229.001 433.84 228.181 433.195 227.348 432.56C209.142 418.765 190.362 415.295 168.057 418.28C176.907 402.05 188 387.29 207.269 384.02Z" fill="#FEFEFE"/>
<path d="M499.35 537.985L499.995 538.005C500.09 538.28 500.185 538.555 500.275 538.83C495.855 552.855 489.545 573.76 485.58 587.08C467.35 583.525 448.25 580.465 429.89 577.3L419.32 575.88C419.975 568.145 419.72 565.585 417.51 558.17C443.94 551.24 472.745 543.74 499.35 537.985Z" fill="#FEFEFE"/>
<path d="M568.641 354.09C571.266 356.2 573.776 358.61 576.256 360.895C573.571 371.155 568.581 385.09 565.261 395.41L543.316 463.97C533.286 496.355 522.936 528.635 512.256 560.81C506.986 577.215 501.906 595.425 496.026 611.35C494.561 610.955 490.931 605.745 489.141 603.78C505.141 552.26 521.571 500.87 538.421 449.62C547.836 419.99 557.766 382.755 568.641 354.09Z" fill="#FEFEFE"/>
<path d="M355.724 530.09C371.804 528.85 389.384 536.11 399.106 549.09C407.341 560.085 415.266 575.095 401.086 585.28C396.346 580.355 392.857 577.065 387.696 572.755C371.748 559.815 351.012 553.855 330.667 553.96C329.065 546.815 328.167 544.865 321.668 541.835C329.765 533.815 344.791 530.975 355.724 530.09Z" fill="#FEFEFE"/>
<path d="M816.25 302.05C820.49 301.32 828.485 305.205 832.815 306.97L590.609 356.905C588.309 357.345 585.4 358.095 583.075 358.635C580.53 355.105 579.2 353.78 575.895 351.18C580.015 349.805 587.19 348.56 591.56 347.69L613.87 343.15L692.219 327.355L771.65 311.08C785.15 308.255 802.895 303.98 816.25 302.05Z" fill="#FEFEFE"/>
<path d="M473.959 455.715C476.259 456.68 491.774 476.21 497.099 480.505C488.799 489.325 483.029 500.215 480.394 512.035C479.649 515.245 479.354 518.61 478.564 522.09C477.659 523.115 476.069 523.135 474.604 523.39L468.349 524.805C463.419 511.145 458.294 497.555 452.984 484.035C460.194 471.155 462.709 465.435 473.959 455.715Z" fill="#FEFEFE"/>
<path d="M331.834 559.545C357.062 560.14 376.941 568.965 394.765 586.875L384.874 589C362.714 593.585 349.24 594.51 326.504 593.8C331.37 579.97 331.802 574.335 331.834 559.545Z" fill="#FEFEFE"/>
<path d="M479.439 91.2041C482.354 92.4906 486.354 95.3291 488.904 97.2886C520.619 121.668 534.009 166.47 522.139 204.495L519.749 210.75C513.964 163.49 500.234 133.073 479.439 91.2041Z" fill="#C88B87"/>
<path d="M394.746 365.485C398.826 364.72 399.591 369.415 400.951 372.735C359.477 381.305 318.432 392.365 276.785 399.775C270.536 400.885 264.284 402.05 258.047 403.22L256.776 403.35C255.549 402.335 252.961 397.025 251.939 395.18C265.526 391.835 282.49 388.815 296.405 385.955C329.224 379.32 362.005 372.5 394.746 365.485Z" fill="#C88B87"/>
<path d="M293.059 544.795C299.499 545.015 310.463 547.275 316.211 550.445C320.724 560.335 320.315 573.715 317.679 584.12C316.057 590.525 313.494 593.33 308.29 596.86C303.024 600.1 298.686 601.895 292.939 604.13C299.114 581.295 300.574 567.71 293.059 544.795Z" fill="#FEFEFE"/>
<path d="M342.515 358.57L343.379 358.935C344.622 361.21 345.124 364.935 345.653 367.595C318.221 373.42 290.702 378.83 263.106 383.825C261.834 383.995 262.448 384.065 261.264 383.65C259.982 381.11 260.184 375.125 260.115 372.075L342.515 358.57Z" fill="#C88B87"/>
<path d="M446.894 424.225C448.019 425.265 452.844 431.17 454.029 432.555L470.544 451.87C463.064 457.16 459.049 461.745 454.109 469.315C452.809 471.78 451.489 474.665 450.269 477.2C445.729 466.4 440.989 452.655 436.814 441.525C439.914 434.395 442.004 430.15 446.894 424.225Z" fill="#FEFEFE"/>
<path d="M450.301 515.43L451.471 515.365C453.486 516.945 455.631 524.23 456.636 527.11C445.121 529.78 433.636 532.585 422.186 535.53C419.131 536.29 406.601 540.165 404.671 538.64C401.351 535.42 399.196 533.535 395.551 530.695C412.071 527.81 433.341 519.76 450.301 515.43Z" fill="#C88B87"/>
<path d="M398.834 594.405C403.884 593.465 472.089 606.84 483.479 608.745C485.519 611.115 487.494 614.12 489.309 616.725L480.879 615.22C449.109 609.97 417.429 604.205 385.852 597.925C390.652 597.02 394.204 595.86 398.834 594.405Z" fill="#FEFEFE"/>
<path d="M501.506 483.58C502.586 483.815 512.301 489.155 514.346 490.19C511.626 498.285 508.831 507.975 506.681 516.15L495.496 518.82C492.106 519.81 488.431 520.595 484.971 521.395C487.076 505.875 491.541 495.89 501.506 483.58Z" fill="#FEFEFE"/>
<path d="M417.016 581.215C436.551 585.795 463.331 589.23 483.806 593.02C483.031 595.335 482.416 599.055 480.906 600.86C480.356 601.52 479.871 601.22 478.616 601.19C455.966 596.57 433.201 592.52 410.346 589.04C414.356 586.365 414.851 585.34 417.016 581.215Z" fill="#FEFEFE"/>
<path d="M353.695 13.9775C358.026 14.0285 364.552 15.2785 368.791 16.1435C390.195 20.5105 408.165 29.984 425.49 42.976C422.855 42.6625 416.905 41.0135 413.745 40.4215C405.475 38.8725 399.67 38.313 391.35 38.24C377.137 25.157 371.569 21.417 353.695 13.9775Z" fill="#FEFEFE"/>
<path d="M502.31 525.94C503.025 525.82 502.975 525.905 503.735 526.05C504.08 527.545 503.325 529.495 502.89 531.065C492.205 533.035 480.22 536.255 469.56 538.825C451.22 543.18 432.905 547.65 414.625 552.24C413.55 551.4 412.725 549.355 412.07 548.03C441.465 540.155 472.415 533.735 502.31 525.94Z" fill="#FEFEFE"/>
<path d="M415.76 387.745C418.2 389.395 439.645 415.725 443.115 419.725C440.23 422.675 439.185 423.745 437.02 427.21C435.875 429.345 434.75 431.915 433.715 434.14C427.9 420.795 421.32 401.975 415.76 387.745Z" fill="#FEFEFE"/>
<path d="M245.976 373.585L250.96 373.38L252.682 385.035L244.965 386.095L237.705 381.225C233.046 378.645 230.457 377.41 225.586 375.285C232.171 374.58 239.335 374.13 245.976 373.585Z" fill="#9F5354"/>
<path d="M357.354 356.505C365.218 356.03 374.045 358.21 381.783 359.835C379.078 360.4 376.283 361.08 373.579 361.7C367.378 362.99 361.188 364.335 355.008 365.725C354.377 363.24 353.135 360.285 353.739 358.075C355.103 356.685 355.108 357.06 357.354 356.505Z" fill="#C88B87"/>
</svg>
